<svg xmlns="http://www.w3.org/2000/svg" xmlns:xlink="http://www.w3.org/1999/xlink" viewBox="0 0 274 125">
  <defs>
    <path id="a" d="M0 0h56v43H0z"/>
    <path id="c" d="M0 0h131v82H0z"/>
    <path id="e" d="M0 0h131v82H0z"/>
  </defs>
  <g fill="none" fill-rule="evenodd">
    <g transform="translate(152)">
      <mask id="b" fill="#fff">
        <use xlink:href="#a"/>
      </mask>
      <path fill="#B8E3DB" d="M28 0c15.5 0 28 9.6 28 21.5S43.5 43 28 43 0 33.4 0 21.5 12.5 0 28 0" mask="url(#b)"/>
    </g>
    <g transform="translate(0 34)">
      <mask id="d" fill="#fff">
        <use xlink:href="#c"/>
      </mask>
      <path fill="#B8E3DB" d="M119 39.6c7.2-3.9 12-10.4 12-17.9C131 9.7 118.6 0 103.2 0c-6 0-11.6 1.5-16.1 4L12.8 42C5 45.8 0 52.6 0 60.3 0 72.3 12.4 82 27.8 82c5.5 0 10.6-1.3 15-3.4l.2-.2L118.2 40l.4-.2.3-.2z" mask="url(#d)"/>
    </g>
    <g transform="translate(143 43)">
      <mask id="f" fill="#fff">
        <use xlink:href="#e"/>
      </mask>
      <path fill="#F5EDED" d="M119 39.6c7.2-3.9 12-10.4 12-17.9C131 9.7 118.6 0 103.2 0c-6 0-11.6 1.5-16.1 4L12.8 42C5 45.8 0 52.6 0 60.3 0 72.3 12.4 82 27.8 82c5.5 0 10.6-1.3 15-3.4l.2-.2L118.2 40l.4-.2.3-.2z" mask="url(#f)"/>
    </g>
  </g>
</svg>