<svg xmlns="http://www.w3.org/2000/svg" viewBox="0 0 675 125">
  <g fill="none" fill-rule="evenodd">
    <path fill="#2D7686" d="M170.7 93.4c12.6 0 22.8-5.7 23.9-19l-11.3-1.6c-.7 6.2-4.7 10.9-12.5 10.9-8.8 0-13.5-6.8-13.5-17.9 0-11 4.5-17.7 13.3-17.7 7.8 0 11.7 5 12.2 10.4l11.4-1.7c-1.2-14-11-18.3-23.8-18.3-16.4 0-25.2 9.9-25.2 27.3 0 17.8 9.2 27.6 25.5 27.6zm69-21.3c0-13.7-7.6-21.3-20.7-21.3-13.2 0-20.8 7.6-20.8 21.3 0 13.6 7.6 21.3 20.8 21.3 13.1 0 20.7-7.7 20.7-21.3zM210 72c0-8.1 2.8-12.7 9-12.7s9 4.6 9 12.7c0 8-2.8 12.6-9 12.6s-9-4.6-9-12.6zM253.7 51.7h-12.2l14.9 41.5h13.3l14.8-41.5h-12.1l-9 30.3h-.4zM315.3 78.3c-.6 5-4 6.4-8.4 6.4-5.1 0-8.5-3-8.7-9.8h27.4v-5.4c0-10.7-5.9-18.7-19.3-18.7-12.5 0-20 8.6-20 21.3 0 14.3 8 21.3 20 21.3 11.3 0 18.6-4.6 19.6-13.9l-10.6-1.2zm-9-19c5.3 0 7.6 3.2 7.6 7.1v.3h-15.5c.4-4.3 2.9-7.5 8-7.5zm50-8c-5.5 0-10.6 1.3-12.7 8h-.2v-7.6H332v40.7h11.5V74c0-9.6 5.4-13 12.5-13h1.1v-9.8h-.8zm3.4 29c0 8.7 6.2 12.7 13.6 12.7 6.6 0 10.4-3 12.4-6.6h.3v6h10V67c0-11.7-7.6-16.1-17.4-16.1-7.4 0-17.6 2.4-17.6 11.8l9.6 2.4h.4c0-4.2 4.2-5.6 7-5.6 3.8 0 6.5 2.2 6.5 5.9V67h-7c-8.7 0-17.8 3.1-17.8 13.2zm24.8-3.5c0 4.6-4.5 7.3-8.2 7.3-2.6 0-4.8-1.4-4.8-4.4 0-3.2 2.4-4.8 6.9-4.8h6v2zm55.2-10.7c0-2.4-.6-4.2-1.6-5.8h7.2v-8.5h-15.7c-1.3-.6-5.1-1-8-1-11.4 0-17.9 5.5-17.9 14.5 0 4.8 2 8.4 5 10.8a8.1 8.1 0 00-5.2 7.7c0 2.9 1.7 6 5 7v.2c-4.3.7-6.3 3.4-6.3 7.4 0 6 4.7 9.8 20.2 9.8 13.7 0 20.8-4.4 20.8-12.6 0-7.4-5-11.5-14.7-11.5h-11.2c-2.5 0-3.8-1-3.8-2.4 0-1 .4-2.1 1.7-2.7 2.1.6 4.6 1 6.5 1 9.8 0 18-4 18-14zm-24.2-.8c0-4.2 1.7-7 6.2-7s6.2 2.8 6.2 7-1.7 7.1-6.2 7.1-6.2-2.9-6.2-7.1zm11 28.2c3.3 0 5 1 5 3.3 0 3-2.7 4.2-9.2 4.2-6.2 0-8.5-1.2-8.5-3.8 0-2 1.2-3.7 4.7-3.7h8zm50.3-15.2c-.5 5-4 6.4-8.4 6.4-5 0-8.4-3-8.7-9.8h27.4v-5.4c0-10.7-5.8-18.7-19.3-18.7-12.5 0-20 8.6-20 21.3 0 14.3 8 21.3 20 21.3 11.4 0 18.7-4.6 19.7-13.9l-10.7-1.2zm-9-19c5.4 0 7.6 3.2 7.6 7.1v.3H460c.3-4.3 2.8-7.5 7.9-7.5zm26.4-20v53.1h24.7c13.6 0 18.5-8.4 18.5-15.3 0-6.4-3.2-10.5-8.7-12.4 6.5-2.6 7.7-8.1 7.7-11.9 0-5.1-3-13.4-18.2-13.4h-24zM506 82.8V69.5h11.8c4.8 0 7.3 2.8 7.3 6.3 0 3.7-1.9 7-6.8 7H506zm11.7-33.6c4.4 0 6.4 2.4 6.4 5.3 0 3.5-3 6-6.2 6h-12V49h11.8zm65.5 23c0-13.7-7.6-21.3-20.7-21.3-13.2 0-20.8 7.6-20.8 21.3 0 13.6 7.6 21.3 20.8 21.3 13.1 0 20.7-7.7 20.7-21.3zm-29.7 0c0-8.1 2.7-12.7 9-12.7 6.2 0 9 4.6 9 12.7 0 8-2.8 12.6-9 12.6-6.3 0-9-4.6-9-12.6zm75.2 0c0-13.7-7.6-21.3-20.7-21.3-13.2 0-20.8 7.6-20.8 21.3 0 13.6 7.6 21.3 20.8 21.3 13.1 0 20.7-7.7 20.7-21.3zm-29.7 0c0-8.1 2.7-12.7 9-12.7 6.2 0 9 4.6 9 12.7 0 8-2.8 12.6-9 12.6-6.3 0-9-4.6-9-12.6zm47.5-32.7H635v53h11.6V80.1l4.6-5 10 17.3h13.7l-15.4-25c5.1-5.4 9.2-10.3 14.3-15.7h-14l-8.2 9.7-5 6.3V39.4z"/>
    <path fill="#E78188" d="M7.5 90.8A5.2 5.2 0 010 86.2v-58a9 9 0 015-8L39.3 3a29.9 29.9 0 0125.5-.4l3 1.7.3.3c4.7 3.3 8 8.7 8 14.4a30 30 0 0123.2.9c1 .4 1.9 1 2.7 1.6l.9.6.7.6c3.4 2.7 5.9 6.7 6.5 11l-.4 64.8c-.6 5.7-3.8 9.6-8.5 12.3L75.8 124a5.2 5.2 0 01-7.5-4.6l-.2-57.1a9 9 0 015-8.1l15-7.5 7.4-3.7h.1L97 42s1.7-1.2 2.7-2.6a6.2 6.2 0 001-5.5c-1-3-4-5-6.2-6-5.3-2.2-11.6-2-16.8.6L44.8 45c-.8.4-1.3 1.2-1.3 2.1v59.7l-2 1a5.2 5.2 0 01-7.4-4.6l-.2-58a9 9 0 015-8.1l22.3-11.2c.8-.3 1.6-1 1.6-1 2.5-1.8 4.5-4.5 3.7-7.6a8.9 8.9 0 00-3.8-5s-1-.7-1.8-1c-5.5-2.6-12-2.5-17.5.2L10.7 27.8c-.8.4-1.3 1.2-1.3 2.1v60s-.8.3-1.9 1z"/>
  </g>
</svg>